{
  "accessors": [
    {
      "bufferView": 2,
      "componentType": 5126,
      "count": 65532,
      "max": [
        2.8221335411071777,
        1.255129098892212,
        1.2149171829223633
      ],
      "min": [
        -0.7918238639831543,
        -0.6274285316467285,
        -0.32783937454223633
      ],
      "type": "VEC3"
    },
    {
      "bufferView": 2,
      "byteOffset": 786384,
      "componentType": 5126,
      "count": 65532,
      "max": [
        1.0,
        1.0,
        0.999989926815033
      ],
      "min": [
        -1.0,
        -1.0,
        -1.0
      ],
      "type": "VEC3"
    },
    {
      "bufferView": 1,
      "componentType": 5126,
      "count": 65532,
      "max": [
        0.8750001192092896,
        1.0000001192092896
      ],
      "min": [
        0.125,
        0.0
      ],
      "type": "VEC2"
    },
    {
      "bufferView": 1,
      "byteOffset": 524256,
      "componentType": 5126,
      "count": 65532,
      "max": [
        2.243119478225708,
        1.4739413261413574
      ],
      "min": [
        -1.2515010833740234,
        -0.54099440574646
      ],
      "type": "VEC2"
    },
    {
      "bufferView": 0,
      "componentType": 5125,
      "count": 152565,
      "type": "SCALAR"
    },
    {
      "bufferView": 2,
      "byteOffset": 1572768,
      "componentType": 5126,
      "count": 65534,
      "max": [
        2.8171911239624023,
        1.2912395000457764,
        1.1262755393981934
      ],
      "min": [
        -0.7344541549682617,
        -0.6260449886322021,
        -0.37053877115249634
      ],
      "type": "VEC3"
    },
    {
      "bufferView": 2,
      "byteOffset": 2359176,
      "componentType": 5126,
      "count": 65534,
      "max": [
        1.0,
        1.0,
        1.0
      ],
      "min": [
        -0.9999991655349731,
        -1.0,
        -1.0
      ],
      "type": "VEC3"
    },
    {
      "bufferView": 1,
      "byteOffset": 1048512,
      "componentType": 5126,
      "count": 65534,
      "max": [
        0.8750001192092896,
        1.0000001192092896
      ],
      "min": [
        0.125,
        0.0
      ],
      "type": "VEC2"
    },
    {
      "bufferView": 1,
      "byteOffset": 1572784,
      "componentType": 5126,
      "count": 65534,
      "max": [
        2.2790398597717285,
        1.3752813339233398
      ],
      "min": [
        -1.2043850421905518,
        -0.54099440574646
      ],
      "type": "VEC2"
    },
    {
      "bufferView": 0,
      "byteOffset": 610260,
      "componentType": 5125,
      "count": 128544,
      "type": "SCALAR"
    },
    {
      "bufferView": 2,
      "byteOffset": 3145584,
      "componentType": 5126,
      "count": 33217,
      "max": [
        2.7860231399536133,
        1.1555222272872925,
        1.2160022258758545
      ],
      "min": [
        -0.4634360373020172,
        -0.6135400533676147,
        -0.3252192735671997
      ],
      "type": "VEC3"
    },
    {
      "bufferView": 2,
      "byteOffset": 3544188,
      "componentType": 5126,
      "count": 33217,
      "max": [
        1.0,
        1.0,
        1.0
      ],
      "min": [
        -0.9999999403953552,
        -0.9999997019767761,
        -1.0
      ],
      "type": "VEC3"
    },
    {
      "bufferView": 1,
      "byteOffset": 2097056,
      "componentType": 5126,
      "count": 33217,
      "max": [
        0.8750001192092896,
        1.0000001192092896
      ],
      "min": [
        0.125,
        0.0
      ],
      "type": "VEC2"
    },
    {
      "bufferView": 1,
      "byteOffset": 2362792,
      "componentType": 5126,
      "count": 33217,
      "max": [
        2.2902355194091797,
        1.475431203842163
      ],
      "min": [
        -0.9466772079467773,
        -0.5180532932281494
      ],
      "type": "VEC2"
    },
    {
      "bufferView": 0,
      "byteOffset": 1124436,
      "componentType": 5125,
      "count": 148971,
      "type": "SCALAR"
    },
    {
      "bufferView": 2,
      "byteOffset": 3942792,
      "componentType": 5126,
      "count": 344,
      "max": [
        2.765123128890991,
        1.1667637825012207,
        -0.2983167767524719
      ],
      "min": [
        -0.7348134517669678,
        -0.5231819748878479,
        -0.5722702145576477
      ],
      "type": "VEC3"
    },
    {
      "bufferView": 2,
      "byteOffset": 3946920,
      "componentType": 5126,
      "count": 344,
      "max": [
        1.0,
        1.0,
        1.0
      ],
      "min": [
        -1.0,
        -1.0,
        -1.0
      ],
      "type": "VEC3"
    },
    {
      "bufferView": 1,
      "byteOffset": 2628528,
      "componentType": 5126,
      "count": 344,
      "max": [
        0.875,
        1.0
      ],
      "min": [
        0.125,
        0.0
      ],
      "type": "VEC2"
    },
    {
      "bufferView": 1,
      "byteOffset": 2631280,
      "componentType": 5126,
      "count": 344,
      "max": [
        1.605940580368042,
        0.8825428485870361
      ],
      "min": [
        -0.6059410572052002,
        0.1174573004245758
      ],
      "type": "VEC2"
    },
    {
      "bufferView": 0,
      "byteOffset": 1720320,
      "componentType": 5125,
      "count": 816,
      "type": "SCALAR"
    },
    {
      "bufferView": 2,
      "byteOffset": 3951048,
      "componentType": 5126,
      "count": 28600,
      "max": [
        2.503206253051758,
        0.6059523224830627,
        0.9048141241073608
      ],
      "min": [
        -0.5038511753082275,
        0.13076135516166687,
        0.051098793745040894
      ],
      "type": "VEC3"
    },
    {
      "bufferView": 2,
      "byteOffset": 4294248,
      "componentType": 5126,
      "count": 28600,
      "max": [
        0.9999856948852539,
        0.9999523162841797,
        0.99997878074646
      ],
      "min": [
        -0.9999856352806091,
        -0.9999970197677612,
        -0.9998086094856262
      ],
      "type": "VEC3"
    },
    {
      "bufferView": 3,
      "componentType": 5126,
      "count": 28600,
      "max": [
        0.9730918407440186,
        0.9907828569412231,
        1.0,
        1.0
      ],
      "min": [
        -0.9783964157104492,
        -0.9759330749511719,
        -0.8590154647827148,
        1.0
      ],
      "type": "VEC4"
    },
    {
      "bufferView": 1,
      "byteOffset": 2634032,
      "componentType": 5126,
      "count": 28600,
      "max": [
        0.8750001192092896,
        1.0000001192092896
      ],
      "min": [
        0.125,
        0.0
      ],
      "type": "VEC2"
    },
    {
      "bufferView": 1,
      "byteOffset": 2862832,
      "componentType": 5126,
      "count": 28600,
      "max": [
        1.6053107976913452,
        1.5927627086639404
      ],
      "min": [
        -0.6036388874053955,
        -0.5932209491729736
      ],
      "type": "VEC2"
    },
    {
      "bufferView": 1,
      "byteOffset": 3091632,
      "componentType": 5126,
      "count": 28600,
      "max": [
        0.8750001192092896,
        1.0000001192092896
      ],
      "min": [
        0.125,
        0.0
      ],
      "type": "VEC2"
    },
    {
      "bufferView": 1,
      "byteOffset": 3320432,
      "componentType": 5126,
      "count": 28600,
      "max": [
        0.8750001192092896,
        1.0000001192092896
      ],
      "min": [
        0.125,
        0.0
      ],
      "type": "VEC2"
    },
    {
      "bufferView": 0,
      "byteOffset": 1723584,
      "componentType": 5125,
      "count": 152064,
      "type": "SCALAR"
    }
  ],
  "asset": {
    "extras": {
      "author": "as2975991 (https://sketchfab.com/as2975991)",
      "license": "CC-BY-4.0 (http://creativecommons.org/licenses/by/4.0/)",
      "source": "https://sketchfab.com/3d-models/sofa-bd92cc33327f460489baa7de6afa4f59",
      "title": "Sofa"
    },
    "generator": "Sketchfab-15.70.0",
    "version": "2.0"
  },
  "bufferViews": [
    {
      "buffer": 0,
      "byteLength": 2331840,
      "name": "floatBufferViews",
      "target": 34963
    },
    {
      "buffer": 0,
      "byteLength": 3549232,
      "byteOffset": 2331840,
      "byteStride": 8,
      "name": "floatBufferViews",
      "target": 34962
    },
    {
      "buffer": 0,
      "byteLength": 4637448,
      "byteOffset": 5881072,
      "byteStride": 12,
      "name": "floatBufferViews",
      "target": 34962
    },
    {
      "buffer": 0,
      "byteLength": 457600,
      "byteOffset": 10518520,
      "byteStride": 16,
      "name": "floatBufferViews",
      "target": 34962
    }
  ],
  "buffers": [
    {
      "byteLength": 10976120,
      "uri": "scene.bin"
    }
  ],
  "images": [
    {
      "uri": "textures/Black_and_White_OIlive_Branch_Fabric_baseColor.jpeg"
    },
    {
      "uri": "textures/Black_and_White_OIlive_Branch_Fabric_normal.png"
    }
  ],
  "materials": [
    {
      "doubleSided": true,
      "name": "Perfora_Texure_Fabric_Cloth",
      "pbrMetallicRoughness": {
        "baseColorFactor": [
          0.077455,
          0.093923,
          0.154873,
          1.0
        ],
        "metallicFactor": 0.0,
        "roughnessFactor": 0.9883866637760736
      }
    },
    {
      "doubleSided": true,
      "name": "Wood_Parquet",
      "pbrMetallicRoughness": {
        "baseColorFactor": [
          0.8,
          0.8,
          0.8,
          1.0
        ],
        "metallicFactor": 0.0,
        "roughnessFactor": 0.8211145618000169
      }
    },
    {
      "doubleSided": true,
      "name": "Black_and_White_OIlive_Branch_Fabric",
      "normalTexture": {
        "index": 1
      },
      "pbrMetallicRoughness": {
        "baseColorTexture": {
          "index": 0
        },
        "metallicFactor": 0.0,
        "roughnessFactor": 0.8211145618000169
      }
    }
  ],
  "meshes": [
    {
      "name": "Cube.004_Perfora Texure Fabric Cloth_0",
      "primitives": [
        {
          "attributes": {
            "NORMAL": 1,
            "POSITION": 0,
            "TEXCOORD_0": 2,
            "TEXCOORD_1": 3
          },
          "indices": 4,
          "material": 0,
          "mode": 4
        }
      ]
    },
    {
      "name": "Cube.004_Perfora Texure Fabric Cloth_0",
      "primitives": [
        {
          "attributes": {
            "NORMAL": 6,
            "POSITION": 5,
            "TEXCOORD_0": 7,
            "TEXCOORD_1": 8
          },
          "indices": 9,
          "material": 0,
          "mode": 4
        }
      ]
    },
    {
      "name": "Cube.004_Perfora Texure Fabric Cloth_0",
      "primitives": [
        {
          "attributes": {
            "NORMAL": 11,
            "POSITION": 10,
            "TEXCOORD_0": 12,
            "TEXCOORD_1": 13
          },
          "indices": 14,
          "material": 0,
          "mode": 4
        }
      ]
    },
    {
      "name": "Cube.004_Wood Parquet_0",
      "primitives": [
        {
          "attributes": {
            "NORMAL": 16,
            "POSITION": 15,
            "TEXCOORD_0": 17,
            "TEXCOORD_1": 18
          },
          "indices": 19,
          "material": 1,
          "mode": 4
        }
      ]
    },
    {
      "name": "Cube.004_Black and White OIlive Branch Fabric_0",
      "primitives": [
        {
          "attributes": {
            "NORMAL": 21,
            "POSITION": 20,
            "TANGENT": 22,
            "TEXCOORD_0": 23,
            "TEXCOORD_1": 24,
            "TEXCOORD_2": 25,
            "TEXCOORD_3": 26
          },
          "indices": 27,
          "material": 2,
          "mode": 4
        }
      ]
    }
  ],
  "nodes": [
    {
      "children": [
        1
      ],
      "matrix": [
        1.0,
        0.0,
        0.0,
        0.0,
        0.0,
        2.220446049250313e-16,
        -1.0,
        0.0,
        0.0,
        1.0,
        2.220446049250313e-16,
        0.0,
        0.0,
        0.0,
        0.0,
        1.0
      ],
      "name": "Sketchfab_model"
    },
    {
      "children": [
        2
      ],
      "matrix": [
        0.009999999776482582,
        0.0,
        0.0,
        0.0,
        0.0,
        0.0,
        0.009999999776482582,
        0.0,
        0.0,
        -0.009999999776482582,
        0.0,
        0.0,
        0.0,
        0.0,
        0.0,
        1.0
      ],
      "name": "91f71c3dcc9d49b3be45999a9b10e947.fbx"
    },
    {
      "children": [
        3,
        9,
        11
      ],
      "name": "RootNode"
    },
    {
      "children": [
        4,
        5,
        6,
        7,
        8
      ],
      "matrix": [
        99.9301299802221,
        1.5755258972460773e-07,
        3.7375288809473313,
        0.0,
        3.737528880947335,
        -4.365246297766134e-06,
        -99.93012998022202,
        0.0,
        5.7098333006155855e-09,
        99.99999999999991,
        -4.3680848937910355e-06,
        0.0,
        -101.51548767089844,
        20.063922882080078,
        -9.964966773986816,
        1.0
      ],
      "name": "Cube.004"
    },
    {
      "mesh": 0,
      "name": "Cube.004_Perfora Texure Fabric Cloth_0"
    },
    {
      "mesh": 1,
      "name": "Cube.004_Perfora Texure Fabric Cloth_0"
    },
    {
      "mesh": 2,
      "name": "Cube.004_Perfora Texure Fabric Cloth_0"
    },
    {
      "mesh": 3,
      "name": "Cube.004_Wood Parquet_0"
    },
    {
      "mesh": 4,
      "name": "Cube.004_Black and White OIlive Branch Fabric_0"
    },
    {
      "children": [
        10
      ],
      "matrix": [
        -2.0283478980510674,
        -24.869156818202327,
        -96.83702452098208,
        0.0,
        -0.5207622030478832,
        96.85827985405275,
        -24.863707614127865,
        0.0,
        99.97807827796932,
        -3.1868509670060097e-05,
        -2.094132212203602,
        0.0,
        0.0,
        234.25543212890625,
        716.7066650390625,
        1.0
      ],
      "name": "Camera"
    },
    {
      "name": "Object_10"
    },
    {
      "children": [
        12
      ],
      "matrix": [
        97.89996742976905,
        -11.267707384641529,
        -16.989265656415345,
        0.0,
        18.597401971891426,
        83.49941184979717,
        51.78788333803421,
        0.0,
        8.35062974547717,
        -53.85988294669835,
        83.84139784033842,
        0.0,
        0.0,
        807.9212036132813,
        -53.506446838378906,
        1.0
      ],
      "name": "Sun"
    },
    {
      "children": [
        13
      ],
      "matrix": [
        1.0,
        0.0,
        0.0,
        0.0,
        0.0,
        2.220446049250313e-16,
        1.0,
        0.0,
        0.0,
        -1.0,
        2.220446049250313e-16,
        0.0,
        0.0,
        0.0,
        0.0,
        1.0
      ],
      "name": "Object_12"
    },
    {
      "name": "Object_13"
    }
  ],
  "samplers": [
    {
      "magFilter": 9729,
      "minFilter": 9987,
      "wrapS": 10497,
      "wrapT": 10497
    }
  ],
  "scene": 0,
  "scenes": [
    {
      "name": "Sketchfab_Scene",
      "nodes": [
        0
      ]
    }
  ],
  "textures": [
    {
      "sampler": 0,
      "source": 0
    },
    {
      "sampler": 0,
      "source": 1
    }
  ]
}
